<?xml version="1.0" encoding="UTF-8" standalone="no"?>
<!DOCTYPE svg PUBLIC "-//W3C//DTD SVG 1.1//EN" "http://www.w3.org/Graphics/SVG/1.1/DTD/svg11.dtd">
<svg width="100%" height="100%" viewBox="0 0 713 117" version="1.1" xmlns="http://www.w3.org/2000/svg"  style="fill-rule:evenodd;clip-rule:evenodd;stroke-linejoin:round;stroke-miterlimit:2;">
    <g transform="matrix(1,0,0,1,-59.53,-239.53)">
        <path d="M518.22,333.27C518.216,333.235 518.214,333.199 518.214,333.164C518.214,332.67 518.62,332.264 519.114,332.264C519.149,332.264 519.185,332.266 519.22,332.27L527.22,332.27C527.248,332.267 527.276,332.266 527.304,332.266C527.809,332.266 528.224,332.681 528.224,333.186C528.224,333.214 528.223,333.242 528.22,333.27L528.22,334C528.22,334.67 527.87,335 527.22,335L521.34,335L521.34,340L526.13,340C526.83,340 527.13,340.34 527.13,341L527.13,341.69C527.133,341.722 527.135,341.753 527.135,341.785C527.135,342.284 526.724,342.695 526.225,342.695C526.193,342.695 526.162,342.693 526.13,342.69L521.34,342.69L521.34,348.74C521.344,348.775 521.346,348.811 521.346,348.846C521.346,349.34 520.94,349.746 520.446,349.746C520.411,349.746 520.375,349.744 520.34,349.74L519.2,349.74C518.52,349.74 518.2,349.4 518.2,348.74L518.22,333.27ZM555.07,333.27C555.066,333.235 555.064,333.199 555.064,333.164C555.064,332.67 555.47,332.264 555.964,332.264C555.999,332.264 556.035,332.266 556.07,332.27L557.18,332.27C557.208,332.267 557.236,332.266 557.264,332.266C557.769,332.266 558.184,332.681 558.184,333.186C558.184,333.214 558.183,333.242 558.18,333.27L558.18,343.45C558.101,344.467 558.466,345.471 559.18,346.2C559.957,346.888 560.973,347.247 562.01,347.2C563.049,347.242 564.066,346.884 564.85,346.2C565.589,345.484 565.977,344.477 565.91,343.45L565.91,333.27C565.907,333.238 565.905,333.207 565.905,333.175C565.905,332.676 566.316,332.265 566.815,332.265C566.847,332.265 566.878,332.267 566.91,332.27L568.05,332.27C568.082,332.267 568.113,332.265 568.145,332.265C568.644,332.265 569.055,332.676 569.055,333.175C569.055,333.207 569.053,333.238 569.05,333.27L569.05,343.48C569.063,344.402 568.89,345.317 568.54,346.17C568.216,346.957 567.729,347.666 567.11,348.25C566.501,348.833 565.784,349.291 565,349.6C564.076,349.931 563.101,350.093 562.12,350.08C561.133,350.093 560.151,349.931 559.22,349.6C558.395,349.308 557.639,348.848 557,348.25C556.378,347.667 555.887,346.958 555.56,346.17C555.213,345.316 555.043,344.401 555.06,343.48L555.07,333.27ZM596.81,348.27C596.62,348.109 596.478,347.897 596.4,347.66C596.347,347.361 596.445,347.054 596.66,346.84L597.2,346.05C597.33,345.81 597.562,345.641 597.83,345.59C598.118,345.578 598.402,345.658 598.64,345.82L599.19,346.19C599.441,346.352 599.705,346.493 599.98,346.61C600.304,346.753 600.638,346.87 600.98,346.96C601.372,347.063 601.775,347.113 602.18,347.11C602.865,347.148 603.543,346.951 604.1,346.55C604.553,346.213 604.814,345.675 604.8,345.11C604.813,344.579 604.589,344.07 604.19,343.72C603.731,343.319 603.22,342.982 602.67,342.72C602.06,342.43 601.41,342.13 600.67,341.83C599.969,341.545 599.299,341.19 598.67,340.77C598.068,340.368 597.552,339.852 597.15,339.25C596.729,338.573 596.52,337.786 596.55,336.99C596.54,336.265 596.694,335.547 597,334.89C597.3,334.272 597.726,333.724 598.25,333.28C598.806,332.833 599.44,332.494 600.12,332.28C600.872,332.034 601.659,331.912 602.45,331.92C602.943,331.917 603.435,331.96 603.92,332.05C604.357,332.134 604.788,332.248 605.21,332.39C605.553,332.51 605.887,332.653 606.21,332.82C606.459,332.948 606.7,333.091 606.93,333.25C607.235,333.429 607.423,333.758 607.423,334.112C607.423,334.307 607.367,334.497 607.26,334.66L606.81,335.48C606.63,335.84 606.42,336.02 606.17,336.02C605.901,336.018 605.636,335.949 605.4,335.82C604.99,335.581 604.566,335.367 604.13,335.18C603.568,334.955 602.966,334.846 602.36,334.86C601.652,334.812 600.948,335.002 600.36,335.4C599.908,335.738 599.641,336.27 599.641,336.835C599.641,337.35 599.863,337.84 600.25,338.18C600.706,338.571 601.219,338.891 601.77,339.13C602.38,339.42 603.03,339.7 603.77,339.99C604.47,340.272 605.14,340.624 605.77,341.04C606.374,341.443 606.891,341.963 607.29,342.57C607.712,343.261 607.92,344.061 607.89,344.87C607.893,345.556 607.76,346.235 607.5,346.87C607.246,347.5 606.857,348.067 606.36,348.53C605.838,349.018 605.222,349.396 604.55,349.64C603.761,349.923 602.928,350.062 602.09,350.05C601.491,350.055 600.894,349.991 600.31,349.86C599.789,349.751 599.277,349.601 598.78,349.41C598.358,349.242 597.948,349.049 597.55,348.83C597.295,348.665 597.048,348.488 596.81,348.3L596.81,348.27ZM635.39,333.27C635.387,333.238 635.385,333.207 635.385,333.175C635.385,332.676 635.796,332.265 636.295,332.265C636.327,332.265 636.358,332.267 636.39,332.27L637.53,332.27C637.562,332.267 637.593,332.265 637.625,332.265C638.124,332.265 638.535,332.676 638.535,333.175C638.535,333.207 638.533,333.238 638.53,333.27L638.53,348.74C638.534,348.775 638.536,348.811 638.536,348.846C638.536,349.34 638.13,349.746 637.636,349.746C637.601,349.746 637.565,349.744 637.53,349.74L636.4,349.74C636.365,349.744 636.329,349.746 636.294,349.746C635.8,349.746 635.394,349.34 635.394,348.846C635.394,348.811 635.396,348.775 635.4,348.74L635.39,333.27ZM666,340.88C665.988,339.68 666.216,338.49 666.67,337.38C667.097,336.312 667.737,335.343 668.55,334.53C669.37,333.716 670.342,333.07 671.41,332.63C673.763,331.71 676.377,331.71 678.73,332.63C679.8,333.073 680.774,333.718 681.6,334.53C682.407,335.346 683.043,336.315 683.47,337.38C683.924,338.49 684.152,339.68 684.14,340.88C684.152,342.115 683.924,343.341 683.47,344.49C682.627,346.697 680.912,348.463 678.73,349.37C676.383,350.316 673.757,350.316 671.41,349.37C669.234,348.455 667.522,346.692 666.67,344.49C666.216,343.341 665.988,342.115 666,340.88ZM669.29,340.88C669.281,341.729 669.427,342.573 669.72,343.37C669.99,344.106 670.397,344.785 670.92,345.37C671.432,345.932 672.055,346.381 672.75,346.69C674.23,347.329 675.91,347.329 677.39,346.69C678.085,346.381 678.708,345.932 679.22,345.37C679.743,344.785 680.15,344.106 680.42,343.37C680.713,342.573 680.859,341.729 680.85,340.88C680.859,340.067 680.713,339.259 680.42,338.5C680.143,337.791 679.736,337.14 679.22,336.58C678.703,336.037 678.08,335.604 677.39,335.31C675.905,334.697 674.235,334.697 672.75,335.31C672.06,335.604 671.437,336.037 670.92,336.58C670.404,337.14 669.997,337.791 669.72,338.5C669.413,339.256 669.254,340.064 669.25,340.88L669.29,340.88ZM711.55,333.27C711.547,333.238 711.545,333.207 711.545,333.175C711.545,332.676 711.956,332.265 712.455,332.265C712.487,332.265 712.518,332.267 712.55,332.27L713.89,332.27C714.402,332.238 714.886,332.513 715.12,332.97L721.35,342.41C721.52,342.67 721.69,342.96 721.87,343.27C722.05,343.58 722.21,343.88 722.34,344.16C722.47,344.44 722.66,344.8 722.81,345.16L722.86,345.16C722.86,344.83 722.79,344.51 722.76,344.16C722.73,343.81 722.71,343.59 722.7,343.27C722.69,342.95 722.7,342.67 722.7,342.41L722.7,333.31C722.697,333.278 722.695,333.247 722.695,333.215C722.695,332.716 723.106,332.305 723.605,332.305C723.637,332.305 723.668,332.307 723.7,332.31L724.82,332.31C724.852,332.307 724.883,332.305 724.915,332.305C725.414,332.305 725.825,332.716 725.825,333.215C725.825,333.247 725.823,333.278 725.82,333.31L725.82,348.78C725.823,348.812 725.825,348.843 725.825,348.875C725.825,349.374 725.414,349.785 724.915,349.785C724.883,349.785 724.852,349.783 724.82,349.78L723.48,349.78C722.976,349.811 722.5,349.54 722.27,349.09L716,339.67C715.83,339.41 715.66,339.12 715.49,338.81C715.32,338.5 715.17,338.2 715.03,337.92C714.89,337.64 714.69,337.28 714.54,336.92C714.54,337.24 714.54,337.57 714.61,337.92C714.68,338.27 714.67,338.5 714.69,338.81C714.71,339.12 714.69,339.41 714.69,339.67L714.69,348.74C714.694,348.775 714.696,348.811 714.696,348.846C714.696,349.34 714.29,349.746 713.796,349.746C713.761,349.746 713.725,349.744 713.69,349.74L712.55,349.74C712.515,349.744 712.479,349.746 712.444,349.746C711.95,349.746 711.544,349.34 711.544,348.846C711.544,348.811 711.546,348.775 711.55,348.74L711.55,333.27Z" style="fill-rule:nonzero;"/>
    </g>
    <g transform="matrix(1,0,0,1,-59.53,-239.53)">
        <path d="M772.48,311L745.23,311L733.23,294.13L713.23,294.07L703.35,294.12L703.35,311L683,311L683,277.73L744,277.64C748.153,277.64 751.57,274.223 751.57,270.07C751.57,265.917 748.153,262.5 744,262.5L695.32,262.5L683,245.24L748.09,245.24C748.092,245.24 748.095,245.24 748.097,245.24C761.499,245.24 772.527,256.268 772.527,269.67C772.527,279.022 767.158,287.586 758.74,291.66L772.48,311Z" style="fill:rgb(225,31,29);fill-rule:nonzero;"/>
    </g>
    <g transform="matrix(1,0,0,1,-59.53,-239.53)">
        <path d="M540.51,311C551.663,311 560.84,301.823 560.84,290.67C560.84,279.517 551.663,270.34 540.51,270.34L498.1,270.34C496.011,270.235 494.349,268.487 494.349,266.395C494.349,264.303 496.011,262.555 498.1,262.45L548.66,262.45L560.84,245.28L494.12,245.19C482.973,245.19 473.8,254.363 473.8,265.51C473.8,276.657 482.973,285.83 494.12,285.83C494.12,285.83 536.57,286.17 536.57,286.17C538.731,286.17 540.51,287.949 540.51,290.11C540.51,292.271 538.731,294.05 536.57,294.05L485.83,294.05L473.68,311L540.51,311Z" style="fill:rgb(225,31,29);fill-rule:nonzero;"/>
    </g>
    <g transform="matrix(1,0,0,1,-59.53,-239.53)">
        <path d="M390.24,245.2L370.12,245.2L370.12,281.67C370.12,290.76 365.29,294.34 349.91,294.34C329.31,294.34 325.25,291.24 325.25,281.67L325.25,245.2L305.33,245.2L305.33,281.67C305.33,301.21 318.77,310.98 349.91,310.98C376.797,310.98 390.24,301.21 390.24,281.67L390.24,245.2Z" style="fill:rgb(225,31,29);fill-rule:nonzero;"/>
    </g>
    <path d="M359.21,54.54L359.21,5.67L338.86,5.67L338.86,71.45L398.33,71.45L410.33,54.54L359.21,54.54Z" style="fill:rgb(225,31,29);fill-rule:nonzero;"/>
    <g transform="matrix(1,0,0,1,-59.53,-239.53)">
        <path d="M271.61,294.05C271.775,294.053 271.939,294.055 272.104,294.055C285.506,294.055 296.534,283.027 296.534,269.625C296.534,256.223 285.506,245.195 272.104,245.195C271.939,245.195 271.775,245.197 271.61,245.2L209,245.2L209,262.43L267.74,262.43C271.813,262.578 275.084,265.969 275.084,270.045C275.084,274.121 271.813,277.512 267.74,277.66L209.05,277.66L209,311L229.25,311L229.25,294.17L271.61,294.05Z" style="fill:rgb(225,31,29);fill-rule:nonzero;"/>
    </g>
    <g transform="matrix(1,0,0,1,-59.53,-239.53)">
        <path d="M663.27,292.41L653.13,278.13L634.19,251.46C631.429,247.548 626.928,245.216 622.14,245.216C617.352,245.216 612.851,247.548 610.09,251.46L591.19,278.06L581,292.36L567.9,310.8L591.44,310.93L596.1,304.37L606,290.5L618.88,272.36C619.631,271.314 620.842,270.692 622.13,270.692C623.418,270.692 624.629,271.314 625.38,272.36L638.29,290.54L640.8,294.08L621.86,294.08L633.86,310.97L676.47,310.97L663.27,292.41Z" style="fill:rgb(225,31,29);fill-rule:nonzero;"/>
    </g>
    <g transform="matrix(1,0,0,1,-59.53,-239.53)">
        <path d="M83,297.64C83,278.621 98.651,262.97 117.67,262.97C136.689,262.97 152.34,278.621 152.34,297.64C152.34,316.659 136.689,332.31 117.67,332.31C98.651,332.31 83,316.659 83,297.64ZM117.67,311.88C125.482,311.88 131.91,305.452 131.91,297.64C131.91,289.828 125.482,283.4 117.67,283.4C109.858,283.4 103.43,289.828 103.43,297.64C103.43,297.64 103.43,297.64 103.43,297.64C103.43,305.452 109.858,311.88 117.67,311.88C117.683,311.88 117.697,311.88 117.71,311.88L117.67,311.88Z" style="fill:rgb(225,31,29);fill-rule:nonzero;"/>
    </g>
    <g transform="matrix(1,0,0,1,-59.53,-239.53)">
        <path d="M117.66,355.75C85.763,355.706 59.54,329.447 59.54,297.55C59.54,294.113 59.845,290.683 60.45,287.3L61.01,284.22L71.01,293.51L70.95,294.33C69.322,316.753 84.073,337.336 105.83,343C110.982,344.345 116.325,344.801 121.63,344.35L122.42,344.28L132.24,354.01L129.09,354.65C125.326,355.392 121.497,355.761 117.66,355.75ZM133.34,353.66L136.85,340.34L137.57,340C153.956,332.292 164.462,315.741 164.462,297.633C164.462,287.893 161.423,278.392 155.77,270.46L155.28,269.78L159.18,256.87L161.18,259.19C170.533,269.802 175.697,283.473 175.697,297.618C175.697,322.428 159.812,344.625 136.33,352.63L133.34,353.66ZM61.63,281.86L62.63,278.94C72.437,250.316 102.988,233.848 132.29,241.39C140.894,243.608 148.869,247.788 155.59,253.6L158.03,255.71L144.66,259.36L144,258.92C136.228,253.633 127.043,250.805 117.644,250.805C99.409,250.805 82.762,261.449 75.11,278L74.76,278.76L61.63,281.86Z" style="fill-rule:nonzero;"/>
    </g>
</svg>
